<svg width="17" height="16" viewBox="0 0 17 16" fill="none" xmlns="http://www.w3.org/2000/svg">
<g clip-path="url(#clip0_11476_70)">
<path d="M11.0588 2.98763L10.3576 3.68887C10.1877 3.8587 10.1905 4.13493 10.3638 4.30129L13.2478 7.07102H0.928762C0.691978 7.07102 0.5 7.263 0.5 7.49979V8.50023C0.5 8.73702 0.691978 8.92899 0.928762 8.92899H13.2478L10.3638 11.6987C10.1905 11.8651 10.1877 12.1413 10.3576 12.3111L11.0588 13.0124C11.2263 13.1798 11.4978 13.1798 11.6652 13.0124L16.3744 8.30318C16.5419 8.13575 16.5419 7.86427 16.3744 7.6968L11.6652 2.98763C11.4977 2.8202 11.2262 2.8202 11.0588 2.98763Z" fill="white"/>
</g>
<defs>
<clipPath id="clip0_11476_70">
<rect width="16" height="16" fill="white" transform="translate(0.5)"/>
</clipPath>
</defs>
</svg>
