<svg width="24" height="20" viewBox="0 0 24 20" fill="none" xmlns="http://www.w3.org/2000/svg">
<path d="M23.7589 9.64155L13.4935 1.20774C13.0738 0.858325 12.545 0.666992 11.9989 0.666992C11.4528 0.666992 10.924 0.858325 10.5043 1.20774L0.238799 9.64155C0.171656 9.69774 0.11624 9.76661 0.0757144 9.84422C0.0351887 9.92183 0.0103474 10.0067 0.00260907 10.0939C-0.0051293 10.1811 0.00438679 10.269 0.030614 10.3525C0.0568411 10.436 0.0992657 10.5136 0.155465 10.5807L0.582134 11.0932C0.69561 11.2287 0.858233 11.3136 1.03426 11.3292C1.21029 11.3448 1.38532 11.2899 1.52089 11.1766L2.66548 10.2365V17.9995C2.66647 18.3528 2.80726 18.6914 3.0571 18.9412C3.30694 19.1911 3.6455 19.3319 3.99882 19.3329H9.33219C9.68551 19.3319 10.0241 19.1911 10.2739 18.9412C10.5237 18.6914 10.6645 18.3528 10.6655 17.9995V13.6662H13.3322V17.9995C13.3332 18.3528 13.474 18.6914 13.7238 18.9412C13.9737 19.1911 14.3122 19.3319 14.6656 19.3329H19.9989C20.3506 19.3321 20.6878 19.1928 20.9374 18.945C21.187 18.6973 21.3289 18.3612 21.3323 18.0095V10.2357L22.4794 11.1782C22.6149 11.2916 22.79 11.3465 22.966 11.3309C23.142 11.3152 23.3046 11.2304 23.4181 11.0949L23.8444 10.5828C23.9008 10.5155 23.9433 10.4377 23.9695 10.3539C23.9958 10.2701 24.0052 10.1819 23.9973 10.0944C23.9893 10.007 23.9642 9.92192 23.9233 9.8442C23.8824 9.76649 23.8265 9.69761 23.7589 9.64155ZM19.326 17.3328H15.3322V12.9995C15.3312 12.6462 15.1904 12.3076 14.9406 12.0578C14.6908 11.8079 14.3522 11.6671 13.9989 11.6661H9.99886C9.64554 11.6671 9.30697 11.8079 9.05714 12.0578C8.8073 12.3076 8.66651 12.6462 8.66552 12.9995V17.3328H4.66549V8.59404L11.9989 2.56817L19.3323 8.59154L19.326 17.3328Z" fill="white"/>
</svg>
