<svg width="44" height="45" viewBox="0 0 44 45" fill="none" xmlns="http://www.w3.org/2000/svg">
<path d="M11.26 26.2168C11.7289 26.2168 12.1785 26.4132 12.5101 26.7629C12.8416 27.1126 13.0279 27.5869 13.0279 28.0814C13.0279 28.5759 12.8416 29.0502 12.5101 29.3998C12.1785 29.7495 11.7289 29.946 11.26 29.946C10.0993 29.946 8.94987 29.7048 7.87746 29.2363C6.80505 28.7678 5.83063 28.0811 5.00985 27.2153C3.35219 25.467 2.42093 23.0956 2.42093 20.6231C2.42093 18.1505 3.35219 15.7791 5.00985 14.0308C6.6675 12.2824 8.91576 11.3001 11.26 11.3001C13.0279 6.91836 17.0939 3.8418 21.867 3.8418C27.9306 3.8418 32.8982 8.80159 33.3578 15.0852L34.2417 15.0293C36.1172 15.0293 37.9158 15.8151 39.2419 17.2138C40.568 18.6125 41.313 20.5096 41.313 22.4876C41.313 24.4657 40.568 26.3628 39.2419 27.7615C37.9158 29.1602 36.1172 29.946 34.2417 29.946H32.4739C32.0051 29.946 31.5554 29.7495 31.2239 29.3998C30.8923 29.0502 30.7061 28.5759 30.7061 28.0814C30.7061 27.5869 30.8923 27.1126 31.2239 26.7629C31.5554 26.4132 32.0051 26.2168 32.4739 26.2168H34.2417C35.1794 26.2168 36.0788 25.8239 36.7418 25.1246C37.4049 24.4252 37.7774 23.4767 37.7774 22.4876C37.7774 21.4986 37.4049 20.5501 36.7418 19.8507C36.0788 19.1514 35.1794 18.7585 34.2417 18.7585H30.7061V16.8939C30.7061 14.4213 29.7748 12.05 28.1172 10.3016C26.4595 8.5532 24.2113 7.57096 21.867 7.57096C17.4474 7.57096 13.8234 10.9645 13.1339 15.3836C12.5506 15.1598 11.9141 15.0293 11.26 15.0293C9.85348 15.0293 8.50452 15.6186 7.50992 16.6677C6.51533 17.7167 5.95657 19.1395 5.95657 20.6231C5.95657 22.1066 6.51533 23.5294 7.50992 24.5784C8.50452 25.6275 9.85348 26.2168 11.26 26.2168ZM18.3313 33.6751C19.269 33.6751 20.1683 34.068 20.8314 34.7674C21.4945 35.4667 21.867 36.4153 21.867 37.4043C21.867 38.3933 21.4945 39.3419 20.8314 40.0412C20.1683 40.7406 19.269 41.1335 18.3313 41.1335C17.3936 41.1335 16.4943 40.7406 15.8313 40.0412C15.1682 39.3419 14.7957 38.3933 14.7957 37.4043C14.7957 36.4153 15.1682 35.4667 15.8313 34.7674C16.4943 34.068 17.3936 33.6751 18.3313 33.6751ZM26.2865 29.946C26.9898 29.946 27.6643 30.2406 28.1616 30.7652C28.6589 31.2897 28.9383 32.0011 28.9383 32.7428C28.9383 33.4846 28.6589 34.196 28.1616 34.7205C27.6643 35.245 26.9898 35.5397 26.2865 35.5397C25.5833 35.5397 24.9088 35.245 24.4115 34.7205C23.9142 34.196 23.6348 33.4846 23.6348 32.7428C23.6348 32.0011 23.9142 31.2897 24.4115 30.7652C24.9088 30.2406 25.5833 29.946 26.2865 29.946ZM19.2152 22.4876C19.9185 22.4876 20.593 22.7823 21.0903 23.3068C21.5876 23.8313 21.867 24.5427 21.867 25.2845C21.867 26.0263 21.5876 26.7377 21.0903 27.2622C20.593 27.7867 19.9185 28.0814 19.2152 28.0814C18.512 28.0814 17.8375 27.7867 17.3402 27.2622C16.8429 26.7377 16.5635 26.0263 16.5635 25.2845C16.5635 24.5427 16.8429 23.8313 17.3402 23.3068C17.8375 22.7823 18.512 22.4876 19.2152 22.4876Z" fill="#2D5BD0"/>
</svg>
