<svg width="25" height="24" viewBox="0 0 25 24" fill="none" xmlns="http://www.w3.org/2000/svg">
<path d="M9.03162 2.93677C11.2165 1.66727 13.902 1.68946 16.0664 2.99489C18.2095 4.32691 19.512 6.70418 19.4999 9.26144C19.45 11.8019 18.0533 14.19 16.3075 16.0361C15.2998 17.1064 14.1726 18.0528 12.9488 18.856C12.8228 18.9289 12.6847 18.9777 12.5415 19C12.4036 18.9941 12.2693 18.9534 12.1508 18.8814C10.2824 17.6746 8.64333 16.134 7.31233 14.334C6.19859 12.8314 5.56583 11.016 5.5 9.13442L5.50499 8.86069C5.59592 6.40464 6.9248 4.16093 9.03162 2.93677ZM13.4073 7.03477C12.5191 6.65723 11.495 6.86235 10.8133 7.55435C10.1316 8.24635 9.92664 9.28872 10.2942 10.1948C10.6617 11.1008 11.5292 11.6918 12.4916 11.6918C13.1221 11.6964 13.7282 11.4438 14.1748 10.9905C14.6214 10.5371 14.8715 9.92064 14.8693 9.27838C14.8726 8.29804 14.2955 7.41231 13.4073 7.03477Z" fill="white"/>
<path opacity="0.4" d="M12.5 22C15.2614 22 17.5 21.5523 17.5 21C17.5 20.4477 15.2614 20 12.5 20C9.73858 20 7.5 20.4477 7.5 21C7.5 21.5523 9.73858 22 12.5 22Z" fill="white"/>
</svg>
