<svg width="16" height="16" viewBox="0 0 16 16" fill="none" xmlns="http://www.w3.org/2000/svg">
<path d="M5.44114 13.0124L6.14239 12.3112C6.31221 12.1414 6.30943 11.8651 6.13621 11.6988L3.25212 8.92902H15.5712C15.808 8.92902 16 8.73704 16 8.50026V7.49981C16 7.26302 15.808 7.07104 15.5712 7.07104H3.25212L6.13617 4.3013C6.30943 4.13494 6.31221 3.8587 6.14235 3.68888L5.44111 2.98763C5.27368 2.8202 5.0022 2.8202 4.83473 2.98763L0.125574 7.69686C-0.0418581 7.86429 -0.0418581 8.13577 0.125574 8.30324L4.8348 13.0125C5.00223 13.1799 5.27371 13.1799 5.44114 13.0124Z" fill="#231F20"/>
</svg>
