<svg width="31" height="34" viewBox="0 0 31 34" fill="none" xmlns="http://www.w3.org/2000/svg">
<path fill-rule="evenodd" clip-rule="evenodd" d="M23.7667 11.4567C21.0233 11.4567 18.7833 9.23333 18.7833 6.49V3.08667L27.5867 11.4567H23.7667ZM18.48 24.1533H9.48164C8.79164 24.1533 8.23164 23.5933 8.23164 22.9033C8.23164 22.2133 8.79164 21.6533 9.48164 21.6533H18.48C19.1717 21.6533 19.73 22.2133 19.73 22.9033C19.73 23.5933 19.1717 24.1533 18.48 24.1533ZM9.47831 14.9683H15.0717C15.7617 14.9683 16.3217 15.5283 16.3217 16.2183C16.3217 16.91 15.7617 17.4683 15.0717 17.4683H9.47831C8.78831 17.4683 8.22831 16.91 8.22831 16.2183C8.22831 15.5283 8.78831 14.9683 9.47831 14.9683ZM29.925 11.75C29.925 11.6833 29.925 11.6333 29.9083 11.5667C29.8583 11.2667 29.8083 10.9667 29.7583 10.6833C29.725 10.5 29.6417 10.35 29.5083 10.2167L20.0583 1.21667C19.9417 1.1 19.775 1.01667 19.6083 1C19.325 0.966667 19.025 0.933333 18.725 0.9C18.675 0.883333 18.6083 0.883333 18.5583 0.883333C17.5917 0.8 16.525 0.75 15.4083 0.75C4.47498 0.75 0.591644 5 0.591644 17C0.591644 28.9833 4.47498 33.25 15.4083 33.25C26.3583 33.25 30.2417 28.9833 30.2417 17C30.2417 15 30.1417 13.2667 29.925 11.75Z" fill="#2D5BD0"/>
</svg>
