<svg width="76" height="76" viewBox="0 0 76 76" fill="none" xmlns="http://www.w3.org/2000/svg">
<path d="M38 23.75C30.1477 23.75 23.75 30.1477 23.75 38C23.75 45.8523 30.1477 52.25 38 52.25C45.8523 52.25 52.25 45.8523 52.25 38C52.25 30.1477 45.8523 23.75 38 23.75ZM74.575 35.6992L60.518 28.6781L65.4906 13.775C66.1586 11.7563 64.2437 9.84141 62.2398 10.5242L47.3367 15.4969L40.3008 1.425C39.3508 -0.475 36.6492 -0.475 35.6992 1.425L28.6781 15.482L13.7602 10.5094C11.7414 9.84141 9.82656 11.7562 10.5094 13.7602L15.482 28.6633L1.425 35.6992C-0.475 36.6492 -0.475 39.3508 1.425 40.3008L15.482 47.3219L10.5094 62.2398C9.84141 64.2586 11.7562 66.1734 13.7602 65.4906L28.6633 60.518L35.6844 74.575C36.6344 76.475 39.3359 76.475 40.2859 74.575L47.307 60.518L62.2102 65.4906C64.2289 66.1586 66.1437 64.2437 65.4609 62.2398L60.4883 47.3367L74.5453 40.3156C76.475 39.3508 76.475 36.6492 74.575 35.6992ZM51.4336 51.4336C44.0266 58.8406 31.9734 58.8406 24.5664 51.4336C17.1594 44.0266 17.1594 31.9734 24.5664 24.5664C31.9734 17.1594 44.0266 17.1594 51.4336 24.5664C58.8406 31.9734 58.8406 44.0266 51.4336 51.4336Z" fill="#FFD324"/>
</svg>
