<svg width="44" height="45" viewBox="0 0 44 45" fill="none" xmlns="http://www.w3.org/2000/svg">
<path d="M23.6495 28.6282V15.9863C23.6495 15.4918 23.4633 15.0175 23.1318 14.6679C22.8002 14.3182 22.3506 14.1217 21.8817 14.1217C21.4129 14.1217 20.9632 14.3182 20.6317 14.6679C20.3002 15.0175 20.1139 15.4918 20.1139 15.9863V28.6282C19.5795 28.9536 19.1352 29.4208 18.8251 29.9834C18.5149 30.5461 18.3498 31.1845 18.3461 31.8353C18.3461 32.8243 18.7186 33.7729 19.3816 34.4722C20.0447 35.1716 20.944 35.5645 21.8817 35.5645C22.8194 35.5645 23.7187 35.1716 24.3818 34.4722C25.0449 33.7729 25.4174 32.8243 25.4174 31.8353C25.4136 31.1845 25.2485 30.5461 24.9384 29.9834C24.6282 29.4208 24.1839 28.9536 23.6495 28.6282ZM29.8369 24.377V10.3926C29.8369 8.16725 28.9988 6.03306 27.5069 4.45951C26.015 2.88596 23.9916 2.00195 21.8817 2.00195C19.7719 2.00195 17.7484 2.88596 16.2565 4.45951C14.7647 6.03306 13.9265 8.16725 13.9265 10.3926V24.377C12.7047 25.8373 11.8655 27.6088 11.4919 29.5162C11.1183 31.4236 11.2234 33.4008 11.7966 35.2523C12.3698 37.1037 13.3913 38.7652 14.7602 40.0725C16.129 41.3798 17.7977 42.2875 19.6012 42.7058C20.3504 42.8859 21.1139 42.992 21.8817 43.0228C23.9335 43.0329 25.944 42.4151 27.6696 41.2442C29.3952 40.0734 30.7618 38.3999 31.6038 36.4264C32.4458 34.4529 32.727 32.2642 32.4134 30.1255C32.0998 27.9868 31.2048 25.99 29.8369 24.377ZM26.3013 37.5596C24.8947 38.875 23.0503 39.5472 21.1739 39.4283C19.2974 39.3094 17.5426 38.4092 16.2954 36.9256C15.0482 35.442 14.4109 33.4967 14.5237 31.5175C14.6364 29.5384 15.4899 27.6875 16.8965 26.3721C17.0635 26.1994 17.1964 25.9934 17.2874 25.7662C17.3785 25.5389 17.4258 25.2949 17.4268 25.0482V10.3926C17.4268 9.15628 17.8924 7.97062 18.7213 7.09643C19.5501 6.22224 20.6742 5.73112 21.8464 5.73112C23.0185 5.73112 24.1426 6.22224 24.9715 7.09643C25.8003 7.97062 26.2659 9.15628 26.2659 10.3926V25.1974C26.2669 25.4441 26.3143 25.6881 26.4053 25.9154C26.4963 26.1426 26.6292 26.3485 26.7963 26.5212C27.5189 27.2575 28.0844 28.1477 28.4552 29.1326C28.8261 30.1175 28.9936 31.1745 28.9468 32.233C28.9 33.2916 28.6398 34.3274 28.1836 35.2716C27.7274 36.2158 27.0858 37.0466 26.3013 37.7087V37.5596Z" fill="#2D5BD0"/>
</svg>
