<svg width="44" height="45" viewBox="0 0 44 45" fill="none" xmlns="http://www.w3.org/2000/svg">
<path d="M23.6495 7.57092L21.8817 13.0416L20.1139 7.57092C20.0186 7.27463 19.9916 6.95864 20.0351 6.64915C20.0787 6.33965 20.1915 6.04556 20.3643 5.79124C20.5372 5.53692 20.7649 5.3297 21.0288 5.18675C21.2927 5.0438 21.5851 4.96924 21.8817 4.96924C22.1784 4.96924 22.4707 5.0438 22.7346 5.18675C22.9985 5.3297 23.2263 5.53692 23.3991 5.79124C23.5719 6.04556 23.6848 6.33965 23.7283 6.64915C23.7719 6.95864 23.7449 7.27463 23.6495 7.57092ZM7.73913 20.623L12.9259 22.4876L7.73913 24.3522C7.45822 24.4527 7.15863 24.4812 6.86519 24.4353C6.57176 24.3893 6.29293 24.2703 6.05181 24.088C5.81069 23.9057 5.61422 23.6655 5.47869 23.3872C5.34316 23.1089 5.27246 22.8005 5.27246 22.4876C5.27246 22.1747 5.34316 21.8663 5.47869 21.588C5.61422 21.3097 5.81069 21.0694 6.05181 20.8872C6.29293 20.7049 6.57176 20.5859 6.86519 20.5399C7.15863 20.494 7.45822 20.5225 7.73913 20.623ZM20.1139 37.4043L21.8817 31.9336L23.6495 37.4043C23.7449 37.7006 23.7719 38.0165 23.7283 38.326C23.6848 38.6355 23.5719 38.9296 23.3991 39.1839C23.2263 39.4383 22.9985 39.6455 22.7346 39.7884C22.4707 39.9314 22.1784 40.0059 21.8817 40.0059C21.5851 40.0059 21.2927 39.9314 21.0288 39.7884C20.7649 39.6455 20.5372 39.4383 20.3643 39.1839C20.1915 38.9296 20.0787 38.6355 20.0351 38.326C19.9916 38.0165 20.0186 37.7006 20.1139 37.4043ZM36.0243 24.3484L30.8375 22.4839L36.0243 20.6193C36.3052 20.5187 36.6048 20.4903 36.8982 20.5362C37.1917 20.5821 37.4705 20.7012 37.7116 20.8834C37.9527 21.0657 38.1492 21.3059 38.2847 21.5843C38.4203 21.8626 38.491 22.171 38.491 22.4839C38.491 22.7967 38.4203 23.1051 38.2847 23.3834C38.1492 23.6618 37.9527 23.902 37.7116 24.0843C37.4705 24.2666 37.1917 24.3856 36.8982 24.4315C36.6048 24.4775 36.3052 24.449 36.0243 24.3484ZM13.131 10.6214L15.5476 15.8068L10.6313 13.2579C10.3641 13.12 10.132 12.9169 9.95428 12.6653C9.77654 12.4138 9.65831 12.1211 9.6094 11.8117C9.5605 11.5022 9.58233 11.1849 9.6731 10.8862C9.76387 10.5874 9.92095 10.3158 10.1313 10.094C10.3416 9.87215 10.5991 9.70648 10.8823 9.61075C11.1656 9.51501 11.4664 9.49198 11.7598 9.54356C12.0532 9.59514 12.3307 9.71985 12.5692 9.90731C12.8076 10.0948 13.0003 10.3396 13.131 10.6214ZM10.6313 31.7154L15.5476 29.1665L13.131 34.3519C13.0003 34.6337 12.8076 34.8785 12.5692 35.066C12.3307 35.2535 12.0532 35.3782 11.7598 35.4298C11.4664 35.4813 11.1656 35.4583 10.8823 35.3626C10.5991 35.2668 10.3416 35.1012 10.1313 34.8793C9.92095 34.6575 9.76387 34.3859 9.6731 34.0872C9.58233 33.7884 9.5605 33.4711 9.6094 33.1617C9.65831 32.8522 9.77654 32.5595 9.95428 32.308C10.132 32.0565 10.3641 31.8533 10.6313 31.7154ZM30.6307 34.3519L28.2141 29.1665L33.1304 31.7154C33.3975 31.8533 33.6296 32.0565 33.8074 32.308C33.9851 32.5595 34.1034 32.8522 34.1523 33.1617C34.2012 33.4711 34.1793 33.7884 34.0886 34.0872C33.9978 34.3859 33.8407 34.6575 33.6304 34.8793C33.4201 35.1012 33.1626 35.2668 32.8793 35.3626C32.5961 35.4583 32.2953 35.4813 32.0019 35.4298C31.7085 35.3782 31.431 35.2535 31.1925 35.066C30.954 34.8785 30.7614 34.6337 30.6307 34.3519ZM33.1286 13.2542L28.2105 15.8049L30.6289 10.6177C30.7596 10.3359 30.9522 10.0911 31.1907 9.90359C31.4292 9.71612 31.7067 9.59141 32.0001 9.53983C32.2935 9.48825 32.5943 9.51128 32.8776 9.60702C33.1608 9.70275 33.4183 9.86843 33.6286 10.0903C33.839 10.3121 33.996 10.5837 34.0868 10.8824C34.1776 11.1812 34.1994 11.4985 34.1505 11.8079C34.1016 12.1174 33.9834 12.41 33.8056 12.6616C33.6279 12.9131 33.3958 13.1163 33.1286 13.2542ZM21.8817 30.8782C17.4957 30.8782 13.9265 27.1136 13.9265 22.4876C13.9265 17.8616 17.4957 14.097 21.8817 14.097C26.2677 14.097 29.8369 17.8616 29.8369 22.4876C29.8369 27.1136 26.2677 30.8782 21.8817 30.8782ZM21.8817 17.8261C19.4439 17.8261 17.4622 19.9163 17.4622 22.4876C17.4622 25.0589 19.4439 27.149 21.8817 27.149C24.3195 27.149 26.3013 25.0589 26.3013 22.4876C26.3013 19.9163 24.3195 17.8261 21.8817 17.8261Z" fill="#2D5BD0"/>
</svg>
