<svg width="44" height="45" viewBox="0 0 44 45" fill="none" xmlns="http://www.w3.org/2000/svg">
<path d="M7.72427 18.7834C7.25542 18.7834 6.80577 18.5869 6.47423 18.2372C6.1427 17.8876 5.95645 17.4133 5.95645 16.9188C5.95645 16.4243 6.1427 15.95 6.47423 15.6003C6.80577 15.2506 7.25542 15.0542 7.72427 15.0542H21.8669C22.8046 15.0542 23.7039 14.6613 24.3669 13.962C25.03 13.2626 25.4025 12.3141 25.4025 11.325C25.4025 10.336 25.03 9.38747 24.3669 8.68811C23.7039 7.98876 22.8046 7.59587 21.8669 7.59587C20.8946 7.59587 20.0106 8.00607 19.3742 8.69597C19.2133 8.87706 19.0189 9.02141 18.803 9.1201C18.5872 9.21878 18.3544 9.2697 18.1191 9.2697C17.8838 9.2697 17.651 9.21878 17.4351 9.1201C17.2192 9.02141 17.0248 8.87706 16.8639 8.69597C16.1745 7.96878 16.1745 6.77545 16.8639 6.04826C18.1544 4.70576 19.9222 3.8667 21.8669 3.8667C23.7423 3.8667 25.5409 4.65249 26.867 6.05119C28.1931 7.4499 28.9381 9.34696 28.9381 11.325C28.9381 13.3031 28.1931 15.2002 26.867 16.5989C25.5409 17.9976 23.7423 18.7834 21.8669 18.7834H7.72427ZM34.2416 22.5125C34.7105 22.5125 35.1601 22.3161 35.4917 21.9664C35.8232 21.6167 36.0094 21.1425 36.0094 20.6479C36.0094 20.1534 35.8232 19.6792 35.4917 19.3295C35.1601 18.9798 34.7105 18.7834 34.2416 18.7834C33.7466 18.7834 33.3047 18.9885 32.9865 19.3241C32.8229 19.4969 32.6286 19.6341 32.4148 19.7277C32.2009 19.8212 31.9717 19.8694 31.7401 19.8694C31.5086 19.8694 31.2794 19.8212 31.0655 19.7277C30.8516 19.6341 30.6574 19.4969 30.4938 19.3241C29.8221 18.5969 29.8221 17.4222 30.4938 16.695C31.4485 15.6882 32.7743 15.0542 34.2416 15.0542C35.6482 15.0542 36.9971 15.6435 37.9917 16.6926C38.9863 17.7416 39.5451 19.1644 39.5451 20.6479C39.5451 22.1315 38.9863 23.5543 37.9917 24.6033C36.9971 25.6524 35.6482 26.2417 34.2416 26.2417H9.4921C9.02324 26.2417 8.57359 26.0453 8.24206 25.6956C7.91053 25.3459 7.72427 24.8716 7.72427 24.3771C7.72427 23.8826 7.91053 23.4083 8.24206 23.0587C8.57359 22.709 9.02324 22.5125 9.4921 22.5125H34.2416ZM32.4738 33.7H7.72427C7.25542 33.7 6.80577 33.5036 6.47423 33.1539C6.1427 32.8042 5.95645 32.33 5.95645 31.8354C5.95645 31.3409 6.1427 30.8667 6.47423 30.517C6.80577 30.1673 7.25542 29.9709 7.72427 29.9709H32.4738C33.8804 29.9709 35.2293 30.5602 36.2239 31.6092C37.2185 32.6583 37.7773 34.0811 37.7773 35.5646C37.7773 37.0482 37.2185 38.471 36.2239 39.52C35.2293 40.569 33.8804 41.1584 32.4738 41.1584C31.0065 41.1584 29.6806 40.5244 28.726 39.5175C28.0542 38.7903 28.0542 37.6157 28.726 36.8885C28.8896 36.7156 29.0838 36.5785 29.2977 36.4849C29.5115 36.3913 29.7408 36.3432 29.9723 36.3432C30.2038 36.3432 30.4331 36.3913 30.647 36.4849C30.8608 36.5785 31.0551 36.7156 31.2186 36.8885C31.5368 37.2241 31.9788 37.4292 32.4738 37.4292C32.9426 37.4292 33.3923 37.2328 33.7238 36.8831C34.0554 36.5334 34.2416 36.0591 34.2416 35.5646C34.2416 35.0701 34.0554 34.5958 33.7238 34.2462C33.3923 33.8965 32.9426 33.7 32.4738 33.7Z" fill="#2D5BD0"/>
</svg>
